<svg width="32" height="38" viewBox="0 0 32 38" fill="none" xmlns="http://www.w3.org/2000/svg">
<path d="M25.7838 7.52628C26.2338 7.87483 26.5275 8.38657 26.6009 8.95008C26.6744 9.5136 26.5216 10.0833 26.1759 10.5351C25.8303 10.9867 25.3197 11.2839 24.7554 11.3618C24.1911 11.4397 23.6188 11.2921 23.1631 10.951C22.4493 10.4074 21.635 10.0095 20.767 9.77973C19.8989 9.55003 18.9941 9.49326 18.104 9.61232C17.2138 9.73149 16.356 10.0245 15.5794 10.4742C14.8027 10.9242 14.1226 11.5223 13.5777 12.2344C13.0328 12.9465 12.6338 13.7586 12.4035 14.6246C12.1733 15.4904 12.1162 16.3931 12.2357 17.281C12.3552 18.1689 12.6487 19.0246 13.0997 19.7993C13.5507 20.574 14.1503 21.2525 14.8641 21.7961C15.3194 22.1428 15.618 22.6557 15.6942 23.2219C15.7703 23.7882 15.6179 24.3614 15.2704 24.8156C14.9228 25.2697 14.4087 25.5676 13.841 25.6436C13.2734 25.7196 12.6987 25.5675 12.2434 25.2208C11.0727 24.3361 10.0887 23.2296 9.3477 21.9647C8.60659 20.6997 8.12321 19.3013 7.92531 17.8496C7.72729 16.3979 7.81845 14.9215 8.19377 13.505C8.56905 12.0886 9.22086 10.76 10.112 9.59548C11.0032 8.43092 12.1162 7.45329 13.3869 6.71873C14.6575 5.98416 16.0613 5.50712 17.5173 5.31493C18.9732 5.12253 20.4529 5.21891 21.8716 5.59847C23.2902 5.97794 24.6196 6.63311 25.7838 7.52628Z" fill="#37BEB0"/>
<path d="M12.1344 33.6261C9.17513 33.6261 6.33709 32.4534 4.24461 30.3661C2.15211 28.2788 0.976562 25.4477 0.976562 22.4958C0.976562 19.5439 2.15211 16.7129 4.24461 14.6256C6.33709 12.5382 9.17513 11.3656 12.1344 11.3656C12.7071 11.3656 13.2564 11.5926 13.6614 11.9966C14.0664 12.4006 14.2939 12.9485 14.2939 13.5198C14.2939 14.0912 14.0664 14.6391 13.6614 15.0431C13.2564 15.4471 12.7071 15.6741 12.1344 15.6741C11.2363 15.6741 10.347 15.8505 9.51734 16.1934C8.68763 16.5362 7.93375 17.0387 7.29871 17.6721C6.66369 18.3056 6.15996 19.0576 5.81628 19.8853C5.47261 20.7129 5.29573 21.6 5.29573 22.4958C5.29573 23.3917 5.47261 24.2787 5.81628 25.1064C6.15996 25.934 6.66369 26.6861 7.29871 27.3196C7.93375 27.9529 8.68763 28.4555 9.51734 28.7984C10.347 29.1411 11.2363 29.3176 12.1344 29.3176C12.7071 29.3176 13.2564 29.5445 13.6614 29.9486C14.0664 30.3525 14.2939 30.9005 14.2939 31.4717C14.2939 32.0432 14.0664 32.5912 13.6614 32.9951C13.2564 33.3991 12.7071 33.6261 12.1344 33.6261Z" fill="#E3E3E3"/>
<path d="M6.69261 32.1821C6.20104 31.8949 5.84313 31.4256 5.69684 30.8764C5.55054 30.3272 5.62776 29.7425 5.91163 29.2498C6.19543 28.7571 6.66297 28.3962 7.21232 28.2458C7.76165 28.0953 8.34834 28.1675 8.84461 28.4465C9.62327 28.8929 10.4825 29.1819 11.373 29.2971C12.2637 29.4122 13.1683 29.3511 14.0353 29.1176C14.9024 28.884 15.7147 28.4822 16.426 27.9355C17.1375 27.3887 17.7339 26.7074 18.1814 25.9306C18.6288 25.1539 18.9186 24.297 19.034 23.4085C19.1493 22.5201 19.0883 21.6177 18.8541 20.7528C18.6198 19.8879 18.2173 19.0776 17.669 18.368C17.121 17.6584 16.438 17.0634 15.6594 16.617C15.1628 16.3323 14.7998 15.8625 14.6505 15.311C14.5011 14.7594 14.5775 14.1712 14.8629 13.6759C15.1483 13.1805 15.6193 12.8185 16.1722 12.6695C16.7251 12.5205 17.3148 12.5967 17.8114 12.8814C19.0874 13.6067 20.2073 14.5762 21.1069 15.7343C22.0067 16.8924 22.6682 18.2162 23.0537 19.6299C23.4393 21.0436 23.5414 22.5193 23.3539 23.9724C23.1665 25.4254 22.6934 26.8273 21.9616 28.0976C21.2298 29.3679 20.2537 30.4816 19.0896 31.3747C17.9254 32.2679 16.5958 32.923 15.1772 33.3024C13.7587 33.682 12.279 33.7784 10.8229 33.5861C9.3669 33.3939 7.96336 32.9167 6.69261 32.1821Z" fill="#E3E3E3"/>
<path d="M20.5767 5.38876C23.5108 5.77263 26.1718 7.30347 27.9744 9.64455C29.7771 11.9855 30.5736 14.945 30.1888 17.8719C29.8039 20.7987 28.2693 23.4532 25.9225 25.2514C23.5757 27.0495 20.6088 27.8441 17.6747 27.4602C17.1068 27.3859 16.5918 27.0896 16.2429 26.6365C15.894 26.1834 15.7398 25.6106 15.8143 25.0441C15.8888 24.4776 16.1858 23.9639 16.6401 23.6158C17.0943 23.2678 17.6685 23.114 18.2364 23.1883C19.1268 23.3048 20.0316 23.2452 20.8989 23.0129C21.7663 22.7806 22.5792 22.3802 23.2915 21.8345C24.0037 21.2888 24.6012 20.6085 25.0498 19.8325C25.4985 19.0564 25.7895 18.1998 25.9063 17.3116C26.023 16.4234 25.9633 15.5209 25.7304 14.6557C25.4976 13.7905 25.0962 12.9795 24.5491 12.269C24.002 11.5586 23.3201 10.9625 22.5421 10.515C21.7641 10.0675 20.9054 9.77717 20.015 9.66067C19.4471 9.58637 18.9321 9.2901 18.5832 8.83694C18.2343 8.38392 18.0801 7.81108 18.1546 7.24465C18.2291 6.67808 18.5261 6.16426 18.9803 5.81632C19.4346 5.46823 20.0088 5.31447 20.5767 5.38876Z" fill="#37BEB0"/>
</svg>
