<svg xmlns="http://www.w3.org/2000/svg" xmlns:xlink="http://www.w3.org/1999/xlink" width="986" zoomAndPan="magnify" viewBox="0 0 739.5 280.499991" height="374" preserveAspectRatio="xMidYMid meet" version="1.0"><defs><g/><clipPath id="2331276dd1"><path d="M 0.410156 0 L 738.59375 0 L 738.59375 280 L 0.410156 280 Z M 0.410156 0 " clip-rule="nonzero"/></clipPath><clipPath id="ff19194837"><path d="M 0.410156 60.984375 L 154.632812 60.984375 L 154.632812 218.953125 L 0.410156 218.953125 Z M 0.410156 60.984375 " clip-rule="nonzero"/></clipPath></defs><g clip-path="url(#2331276dd1)"><path fill="#ffffff" d="M 0.410156 0 L 738.59375 0 L 738.59375 280 L 0.410156 280 Z M 0.410156 0 " fill-opacity="1" fill-rule="nonzero"/></g><g clip-path="url(#ff19194837)"><path fill="#f3fdff" d="M 23.5 60.984375 L 131.269531 60.984375 C 132.027344 60.984375 132.78125 61.023438 133.535156 61.097656 C 134.289062 61.171875 135.035156 61.28125 135.777344 61.429688 C 136.519531 61.578125 137.25 61.761719 137.972656 61.980469 C 138.699219 62.199219 139.410156 62.453125 140.109375 62.742188 C 140.808594 63.03125 141.488281 63.355469 142.15625 63.710938 C 142.824219 64.070312 143.472656 64.457031 144.101562 64.878906 C 144.730469 65.296875 145.335938 65.746094 145.921875 66.226562 C 146.503906 66.707031 147.066406 67.214844 147.601562 67.75 C 148.136719 68.285156 148.640625 68.84375 149.121094 69.429688 C 149.601562 70.011719 150.050781 70.621094 150.472656 71.25 C 150.890625 71.878906 151.28125 72.527344 151.636719 73.191406 C 151.992188 73.859375 152.316406 74.542969 152.605469 75.242188 C 152.894531 75.941406 153.148438 76.652344 153.371094 77.375 C 153.589844 78.097656 153.773438 78.832031 153.921875 79.574219 C 154.066406 80.316406 154.179688 81.0625 154.253906 81.816406 C 154.328125 82.566406 154.363281 83.324219 154.363281 84.078125 L 154.363281 195.695312 C 154.363281 196.453125 154.328125 197.207031 154.253906 197.960938 C 154.179688 198.710938 154.066406 199.460938 153.921875 200.203125 C 153.773438 200.945312 153.589844 201.675781 153.371094 202.398438 C 153.148438 203.125 152.894531 203.835938 152.605469 204.535156 C 152.316406 205.234375 151.992188 205.914062 151.636719 206.582031 C 151.28125 207.25 150.890625 207.898438 150.472656 208.527344 C 150.050781 209.15625 149.601562 209.761719 149.121094 210.347656 C 148.640625 210.929688 148.136719 211.492188 147.601562 212.027344 C 147.066406 212.5625 146.503906 213.066406 145.921875 213.546875 C 145.335938 214.027344 144.730469 214.476562 144.101562 214.898438 C 143.472656 215.316406 142.824219 215.707031 142.15625 216.0625 C 141.488281 216.417969 140.808594 216.742188 140.109375 217.03125 C 139.410156 217.320312 138.699219 217.574219 137.972656 217.796875 C 137.25 218.015625 136.519531 218.199219 135.777344 218.347656 C 135.035156 218.492188 134.289062 218.605469 133.535156 218.679688 C 132.78125 218.753906 132.027344 218.789062 131.269531 218.789062 L 23.5 218.789062 C 22.746094 218.789062 21.992188 218.753906 21.238281 218.679688 C 20.484375 218.605469 19.738281 218.492188 18.996094 218.347656 C 18.253906 218.199219 17.523438 218.015625 16.796875 217.796875 C 16.074219 217.574219 15.363281 217.320312 14.664062 217.03125 C 13.964844 216.742188 13.28125 216.417969 12.617188 216.0625 C 11.949219 215.707031 11.300781 215.316406 10.671875 214.898438 C 10.042969 214.476562 9.4375 214.027344 8.851562 213.546875 C 8.265625 213.066406 7.707031 212.5625 7.171875 212.027344 C 6.636719 211.492188 6.128906 210.929688 5.652344 210.347656 C 5.171875 209.761719 4.71875 209.15625 4.300781 208.527344 C 3.878906 207.898438 3.492188 207.25 3.136719 206.582031 C 2.777344 205.914062 2.457031 205.234375 2.167969 204.535156 C 1.878906 203.835938 1.621094 203.125 1.402344 202.398438 C 1.183594 201.675781 1 200.945312 0.851562 200.203125 C 0.703125 199.460938 0.59375 198.710938 0.519531 197.960938 C 0.445312 197.207031 0.410156 196.453125 0.410156 195.695312 L 0.410156 84.078125 C 0.410156 83.324219 0.445312 82.566406 0.519531 81.816406 C 0.59375 81.0625 0.703125 80.316406 0.851562 79.574219 C 1 78.832031 1.183594 78.097656 1.402344 77.375 C 1.621094 76.652344 1.878906 75.941406 2.167969 75.242188 C 2.457031 74.542969 2.777344 73.859375 3.136719 73.191406 C 3.492188 72.527344 3.878906 71.878906 4.300781 71.25 C 4.71875 70.621094 5.171875 70.011719 5.652344 69.429688 C 6.128906 68.84375 6.636719 68.285156 7.171875 67.75 C 7.707031 67.214844 8.265625 66.707031 8.851562 66.226562 C 9.4375 65.746094 10.042969 65.296875 10.671875 64.878906 C 11.300781 64.457031 11.949219 64.070312 12.617188 63.710938 C 13.28125 63.355469 13.964844 63.03125 14.664062 62.742188 C 15.363281 62.453125 16.074219 62.199219 16.796875 61.980469 C 17.523438 61.761719 18.253906 61.578125 18.996094 61.429688 C 19.738281 61.28125 20.484375 61.171875 21.238281 61.097656 C 21.992188 61.023438 22.746094 60.984375 23.5 60.984375 Z M 23.5 60.984375 " fill-opacity="1" fill-rule="nonzero"/></g><path fill="#37beb0" d="M 113.855469 94.773438 C 115.589844 96.113281 116.71875 98.082031 117.003906 100.25 C 117.285156 102.421875 116.695312 104.613281 115.367188 106.351562 C 114.035156 108.089844 112.070312 109.234375 109.898438 109.535156 C 107.726562 109.832031 105.523438 109.265625 103.769531 107.953125 C 101.023438 105.859375 97.890625 104.328125 94.546875 103.445312 C 91.207031 102.5625 87.722656 102.34375 84.296875 102.800781 C 80.871094 103.257812 77.570312 104.386719 74.582031 106.117188 C 71.59375 107.847656 68.976562 110.152344 66.878906 112.894531 C 64.78125 115.632812 63.242188 118.757812 62.359375 122.09375 C 61.472656 125.425781 61.253906 128.898438 61.710938 132.316406 C 62.171875 135.734375 63.300781 139.027344 65.039062 142.007812 C 66.773438 144.992188 69.082031 147.601562 71.828125 149.695312 C 73.582031 151.027344 74.730469 153.003906 75.023438 155.183594 C 75.316406 157.363281 74.730469 159.566406 73.390625 161.316406 C 72.054688 163.0625 70.074219 164.210938 67.890625 164.503906 C 65.707031 164.796875 63.496094 164.210938 61.742188 162.875 C 57.234375 159.472656 53.449219 155.210938 50.597656 150.34375 C 47.742188 145.476562 45.882812 140.09375 45.121094 134.503906 C 44.359375 128.917969 44.710938 123.234375 46.15625 117.78125 C 47.597656 112.332031 50.109375 107.21875 53.539062 102.734375 C 56.96875 98.253906 61.253906 94.492188 66.144531 91.664062 C 71.035156 88.835938 76.4375 87 82.039062 86.261719 C 87.644531 85.519531 93.339844 85.890625 98.800781 87.351562 C 104.257812 88.8125 109.375 91.332031 113.855469 94.773438 Z M 113.855469 94.773438 " fill-opacity="1" fill-rule="nonzero"/><path fill="#003366" d="M 61.320312 195.226562 C 49.933594 195.226562 39.007812 190.714844 30.957031 182.679688 C 22.902344 174.644531 18.375 163.75 18.375 152.386719 C 18.375 141.027344 22.902344 130.128906 30.957031 122.097656 C 39.007812 114.0625 49.933594 109.546875 61.320312 109.546875 C 63.527344 109.546875 65.640625 110.421875 67.199219 111.976562 C 68.757812 113.53125 69.632812 115.640625 69.632812 117.839844 C 69.632812 120.039062 68.757812 122.148438 67.199219 123.703125 C 65.640625 125.257812 63.527344 126.132812 61.320312 126.132812 C 57.867188 126.132812 54.441406 126.8125 51.25 128.128906 C 48.054688 129.449219 45.152344 131.382812 42.710938 133.820312 C 40.265625 136.261719 38.328125 139.15625 37.003906 142.339844 C 35.683594 145.527344 35 148.941406 35 152.386719 C 35 155.835938 35.683594 159.25 37.003906 162.4375 C 38.328125 165.621094 40.265625 168.515625 42.710938 170.953125 C 45.152344 173.390625 48.054688 175.324219 51.25 176.644531 C 54.441406 177.964844 57.867188 178.644531 61.320312 178.644531 C 63.527344 178.644531 65.640625 179.515625 67.199219 181.074219 C 68.757812 182.628906 69.632812 184.738281 69.632812 186.933594 C 69.632812 189.132812 68.757812 191.242188 67.199219 192.796875 C 65.640625 194.351562 63.527344 195.226562 61.320312 195.226562 Z M 61.320312 195.226562 " fill-opacity="1" fill-rule="nonzero"/><path fill="#003366" d="M 40.378906 189.667969 C 38.484375 188.5625 37.109375 186.757812 36.542969 184.644531 C 35.980469 182.53125 36.277344 180.28125 37.371094 178.382812 C 38.464844 176.488281 40.261719 175.097656 42.378906 174.519531 C 44.492188 173.941406 46.75 174.21875 48.660156 175.292969 C 51.65625 177.007812 54.964844 178.121094 58.390625 178.566406 C 61.820312 179.007812 65.300781 178.773438 68.636719 177.875 C 71.976562 176.976562 75.101562 175.429688 77.839844 173.324219 C 80.578125 171.21875 82.875 168.597656 84.597656 165.609375 C 86.320312 162.617188 87.433594 159.320312 87.878906 155.902344 C 88.320312 152.480469 88.085938 149.007812 87.1875 145.679688 C 86.285156 142.351562 84.734375 139.230469 82.625 136.5 C 80.515625 133.769531 77.886719 131.480469 74.890625 129.761719 C 72.976562 128.664062 71.582031 126.855469 71.007812 124.734375 C 70.429688 122.609375 70.726562 120.347656 71.824219 118.441406 C 72.921875 116.535156 74.734375 115.140625 76.863281 114.566406 C 78.992188 113.992188 81.261719 114.289062 83.171875 115.382812 C 88.082031 118.175781 92.394531 121.90625 95.855469 126.363281 C 99.320312 130.820312 101.867188 135.914062 103.347656 141.355469 C 104.832031 146.796875 105.226562 152.476562 104.503906 158.070312 C 103.785156 163.664062 101.960938 169.058594 99.144531 173.949219 C 96.328125 178.835938 92.574219 183.125 88.09375 186.5625 C 83.609375 190 78.492188 192.519531 73.035156 193.980469 C 67.574219 195.441406 61.878906 195.8125 56.273438 195.074219 C 50.671875 194.332031 45.269531 192.496094 40.378906 189.667969 Z M 40.378906 189.667969 " fill-opacity="1" fill-rule="nonzero"/><path fill="#37beb0" d="M 93.816406 86.542969 C 105.109375 88.023438 115.351562 93.914062 122.289062 102.925781 C 129.226562 111.933594 132.292969 123.324219 130.8125 134.589844 C 129.332031 145.855469 123.421875 156.074219 114.390625 162.992188 C 105.359375 169.914062 93.9375 172.972656 82.644531 171.496094 C 80.460938 171.210938 78.476562 170.070312 77.136719 168.324219 C 75.792969 166.582031 75.199219 164.375 75.484375 162.195312 C 75.773438 160.015625 76.914062 158.039062 78.664062 156.699219 C 80.414062 155.359375 82.621094 154.765625 84.808594 155.054688 C 88.234375 155.5 91.71875 155.273438 95.054688 154.378906 C 98.394531 153.484375 101.523438 151.941406 104.265625 149.84375 C 107.007812 147.742188 109.304688 145.125 111.03125 142.136719 C 112.757812 139.148438 113.878906 135.851562 114.328125 132.433594 C 114.777344 129.015625 114.546875 125.542969 113.652344 122.210938 C 112.753906 118.882812 111.210938 115.761719 109.105469 113.027344 C 107 110.292969 104.375 107.996094 101.378906 106.273438 C 98.386719 104.550781 95.082031 103.433594 91.652344 102.988281 C 89.46875 102.699219 87.484375 101.558594 86.144531 99.816406 C 84.800781 98.074219 84.207031 95.867188 84.492188 93.6875 C 84.78125 91.507812 85.921875 89.53125 87.671875 88.191406 C 89.417969 86.851562 91.628906 86.257812 93.816406 86.542969 Z M 93.816406 86.542969 " fill-opacity="1" fill-rule="nonzero"/><g fill="#003366" fill-opacity="1"><g transform="translate(142.416329, 182.938905)"><g><path d="M 4.34375 -43.375 C 4.34375 -51.882812 6.257812 -59.503906 10.09375 -66.234375 C 13.9375 -72.972656 19.179688 -78.222656 25.828125 -81.984375 C 32.484375 -85.742188 39.945312 -87.625 48.21875 -87.625 C 57.882812 -87.625 66.351562 -85.144531 73.625 -80.1875 C 80.894531 -75.226562 85.972656 -68.367188 88.859375 -59.609375 L 68.90625 -59.609375 C 66.925781 -63.742188 64.140625 -66.84375 60.546875 -68.90625 C 56.953125 -70.96875 52.800781 -72 48.09375 -72 C 43.050781 -72 38.566406 -70.820312 34.640625 -68.46875 C 30.710938 -66.113281 27.65625 -62.785156 25.46875 -58.484375 C 23.28125 -54.191406 22.1875 -49.15625 22.1875 -43.375 C 22.1875 -37.675781 23.28125 -32.65625 25.46875 -28.3125 C 27.65625 -23.976562 30.710938 -20.632812 34.640625 -18.28125 C 38.566406 -15.925781 43.050781 -14.75 48.09375 -14.75 C 52.800781 -14.75 56.953125 -15.800781 60.546875 -17.90625 C 64.140625 -20.007812 66.925781 -23.128906 68.90625 -27.265625 L 88.859375 -27.265625 C 85.972656 -18.421875 80.914062 -11.539062 73.6875 -6.625 C 66.457031 -1.707031 57.96875 0.75 48.21875 0.75 C 39.945312 0.75 32.484375 -1.128906 25.828125 -4.890625 C 19.179688 -8.648438 13.9375 -13.875 10.09375 -20.5625 C 6.257812 -27.257812 4.34375 -34.863281 4.34375 -43.375 Z M 4.34375 -43.375 "/></g></g></g><g fill="#003366" fill-opacity="1"><g transform="translate(237.601662, 182.938905)"><g><path d="M 39.046875 1.109375 C 32.429688 1.109375 26.476562 -0.351562 21.1875 -3.28125 C 15.90625 -6.21875 11.753906 -10.367188 8.734375 -15.734375 C 5.722656 -21.109375 4.21875 -27.304688 4.21875 -34.328125 C 4.21875 -41.347656 5.765625 -47.546875 8.859375 -52.921875 C 11.960938 -58.296875 16.195312 -62.445312 21.5625 -65.375 C 26.9375 -68.3125 32.925781 -69.78125 39.53125 -69.78125 C 46.144531 -69.78125 52.132812 -68.3125 57.5 -65.375 C 62.875 -62.445312 67.109375 -58.296875 70.203125 -52.921875 C 73.304688 -47.546875 74.859375 -41.347656 74.859375 -34.328125 C 74.859375 -27.304688 73.265625 -21.109375 70.078125 -15.734375 C 66.898438 -10.367188 62.601562 -6.21875 57.1875 -3.28125 C 51.78125 -0.351562 45.734375 1.109375 39.046875 1.109375 Z M 39.046875 -14 C 42.179688 -14 45.128906 -14.765625 47.890625 -16.296875 C 50.660156 -17.828125 52.875 -20.117188 54.53125 -23.171875 C 56.1875 -26.234375 57.015625 -29.953125 57.015625 -34.328125 C 57.015625 -40.859375 55.296875 -45.878906 51.859375 -49.390625 C 48.429688 -52.898438 44.238281 -54.65625 39.28125 -54.65625 C 34.332031 -54.65625 30.179688 -52.898438 26.828125 -49.390625 C 23.484375 -45.878906 21.8125 -40.859375 21.8125 -34.328125 C 21.8125 -27.804688 23.441406 -22.785156 26.703125 -19.265625 C 29.972656 -15.753906 34.085938 -14 39.046875 -14 Z M 39.046875 -14 "/></g></g></g><g fill="#003366" fill-opacity="1"><g transform="translate(316.67489, 182.938905)"><g><path d="M 46.59375 -69.65625 C 54.78125 -69.65625 61.390625 -67.070312 66.421875 -61.90625 C 71.460938 -56.738281 73.984375 -49.53125 73.984375 -40.28125 L 73.984375 0 L 56.640625 0 L 56.640625 -37.921875 C 56.640625 -43.378906 55.273438 -47.570312 52.546875 -50.5 C 49.816406 -53.4375 46.097656 -54.90625 41.390625 -54.90625 C 36.597656 -54.90625 32.816406 -53.4375 30.046875 -50.5 C 27.285156 -47.570312 25.90625 -43.378906 25.90625 -37.921875 L 25.90625 0 L 8.546875 0 L 8.546875 -68.65625 L 25.90625 -68.65625 L 25.90625 -60.109375 C 28.21875 -63.085938 31.171875 -65.421875 34.765625 -67.109375 C 38.359375 -68.804688 42.300781 -69.65625 46.59375 -69.65625 Z M 46.59375 -69.65625 "/></g></g></g><g fill="#003366" fill-opacity="1"><g transform="translate(398.598726, 182.938905)"><g><path d="M 72.375 -35.8125 C 72.375 -33.332031 72.210938 -31.101562 71.890625 -29.125 L 21.6875 -29.125 C 22.101562 -24.164062 23.835938 -20.28125 26.890625 -17.46875 C 29.953125 -14.664062 33.710938 -13.265625 38.171875 -13.265625 C 44.617188 -13.265625 49.207031 -16.03125 51.9375 -21.5625 L 70.640625 -21.5625 C 68.660156 -14.957031 64.859375 -9.523438 59.234375 -5.265625 C 53.617188 -1.015625 46.722656 1.109375 38.546875 1.109375 C 31.929688 1.109375 26 -0.351562 20.75 -3.28125 C 15.507812 -6.21875 11.421875 -10.367188 8.484375 -15.734375 C 5.554688 -21.109375 4.09375 -27.304688 4.09375 -34.328125 C 4.09375 -41.429688 5.535156 -47.664062 8.421875 -53.03125 C 11.316406 -58.40625 15.363281 -62.539062 20.5625 -65.4375 C 25.769531 -68.332031 31.765625 -69.78125 38.546875 -69.78125 C 45.066406 -69.78125 50.910156 -68.375 56.078125 -65.5625 C 61.242188 -62.75 65.25 -58.757812 68.09375 -53.59375 C 70.945312 -48.4375 72.375 -42.507812 72.375 -35.8125 Z M 54.40625 -40.78125 C 54.320312 -45.238281 52.707031 -48.8125 49.5625 -51.5 C 46.425781 -54.1875 42.585938 -55.53125 38.046875 -55.53125 C 33.753906 -55.53125 30.140625 -54.226562 27.203125 -51.625 C 24.265625 -49.019531 22.46875 -45.40625 21.8125 -40.78125 Z M 54.40625 -40.78125 "/></g></g></g><g fill="#003366" fill-opacity="1"><g transform="translate(475.069251, 182.938905)"><g><path d="M 46.484375 0 L 32.34375 -21.3125 L 19.828125 0 L 1.234375 0 L 23.671875 -34.453125 L 0.984375 -68.65625 L 20.578125 -68.65625 L 34.578125 -47.46875 L 47.21875 -68.65625 L 65.8125 -68.65625 L 43.25 -34.453125 L 66.0625 0 Z M 46.484375 0 "/></g></g></g><g fill="#003366" fill-opacity="1"><g transform="translate(541.99644, 182.938905)"><g><path d="M 17.34375 -76.84375 C 14.289062 -76.84375 11.75 -77.8125 9.71875 -79.75 C 7.695312 -81.695312 6.6875 -84.113281 6.6875 -87 C 6.6875 -89.894531 7.695312 -92.3125 9.71875 -94.25 C 11.75 -96.195312 14.289062 -97.171875 17.34375 -97.171875 C 20.40625 -97.171875 22.945312 -96.195312 24.96875 -94.25 C 27 -92.3125 28.015625 -89.894531 28.015625 -87 C 28.015625 -84.113281 27 -81.695312 24.96875 -79.75 C 22.945312 -77.8125 20.40625 -76.84375 17.34375 -76.84375 Z M 25.90625 -68.65625 L 25.90625 0 L 8.546875 0 L 8.546875 -68.65625 Z M 25.90625 -68.65625 "/></g></g></g><g fill="#003366" fill-opacity="1"><g transform="translate(576.451546, 182.938905)"><g><path d="M 39.046875 1.109375 C 32.429688 1.109375 26.476562 -0.351562 21.1875 -3.28125 C 15.90625 -6.21875 11.753906 -10.367188 8.734375 -15.734375 C 5.722656 -21.109375 4.21875 -27.304688 4.21875 -34.328125 C 4.21875 -41.347656 5.765625 -47.546875 8.859375 -52.921875 C 11.960938 -58.296875 16.195312 -62.445312 21.5625 -65.375 C 26.9375 -68.3125 32.925781 -69.78125 39.53125 -69.78125 C 46.144531 -69.78125 52.132812 -68.3125 57.5 -65.375 C 62.875 -62.445312 67.109375 -58.296875 70.203125 -52.921875 C 73.304688 -47.546875 74.859375 -41.347656 74.859375 -34.328125 C 74.859375 -27.304688 73.265625 -21.109375 70.078125 -15.734375 C 66.898438 -10.367188 62.601562 -6.21875 57.1875 -3.28125 C 51.78125 -0.351562 45.734375 1.109375 39.046875 1.109375 Z M 39.046875 -14 C 42.179688 -14 45.128906 -14.765625 47.890625 -16.296875 C 50.660156 -17.828125 52.875 -20.117188 54.53125 -23.171875 C 56.1875 -26.234375 57.015625 -29.953125 57.015625 -34.328125 C 57.015625 -40.859375 55.296875 -45.878906 51.859375 -49.390625 C 48.429688 -52.898438 44.238281 -54.65625 39.28125 -54.65625 C 34.332031 -54.65625 30.179688 -52.898438 26.828125 -49.390625 C 23.484375 -45.878906 21.8125 -40.859375 21.8125 -34.328125 C 21.8125 -27.804688 23.441406 -22.785156 26.703125 -19.265625 C 29.972656 -15.753906 34.085938 -14 39.046875 -14 Z M 39.046875 -14 "/></g></g></g></svg>